<svg version="1.0" xmlns="http://www.w3.org/2000/svg" width="320" height="326" viewBox="0 0 320 326" >

<g transform="translate(0.000000,326.000000) scale(0.100000,-0.100000)"
fill="#fff" stroke="none">
<path d="M1450 3154 c-554 -70 -1007 -409 -1223 -914 -85 -201 -121 -381 -121
-610 1 -196 18 -311 75 -483 173 -531 606 -914 1154 -1024 135 -26 415 -24
551 5 453 97 824 378 1033 782 238 461 238 979 1 1439 -211 408 -597 697
-1050 786 -82 16 -347 28 -420 19z m295 -149 c165 -11 381 -80 540 -172 121
-69 212 -142 317 -252 254 -264 380 -579 380 -951 0 -369 -125 -685 -375 -946
-110 -116 -186 -177 -308 -249 -361 -213 -815 -247 -1215 -90 -180 71 -338
179 -486 334 -252 262 -381 583 -381 951 -1 363 128 687 376 946 156 163 310
269 502 343 167 65 388 105 525 95 25 -2 81 -6 125 -9z"/>
<path d="M1455 2776 c-201 -39 -384 -148 -505 -299 -68 -85 -135 -223 -161
-332 -27 -117 -23 -298 11 -420 72 -262 251 -588 525 -954 158 -211 240 -301
275 -301 30 0 85 58 212 221 337 435 544 817 604 1112 21 105 14 271 -16 377
-82 286 -311 507 -606 585 -84 22 -254 28 -339 11z m247 -552 c95 -32 172
-132 184 -240 20 -162 -117 -314 -280 -314 -119 0 -205 50 -261 151 -26 47
-30 64 -30 134 0 67 5 88 27 131 31 58 83 108 142 135 51 23 155 25 218 3z"/>
</g>
</svg>
